<?xml version="1.0" encoding="utf-8"?>


<!-- The icon can be used freely in both personal and commercial projects with no attribution required, but always appreciated. 
You may NOT sub-license, resell, rent, redistribute or otherwise transfer the icon without express written permission from iconmonstr.com -->


<!DOCTYPE svg PUBLIC "-//W3C//DTD SVG 1.1//EN" "http://www.w3.org/Graphics/SVG/1.1/DTD/svg11.dtd">

<svg version="1.1" xmlns="http://www.w3.org/2000/svg" xmlns:xlink="http://www.w3.org/1999/xlink" x="0px" y="0px"

	 width="512px" height="512px" viewBox="0 0 512 512" enable-background="new 0 0 512 512" xml:space="preserve">

<path id="magnifier-icon" d="M460.475,408.443L351.4,299.37c15.95-25.137,25.2-54.923,25.2-86.833

	C376.601,122.914,303.687,50,214.062,50c-89.623,0-162.537,72.914-162.537,162.537s72.914,162.537,162.537,162.537

	c30.326,0,58.733-8.356,83.055-22.876L406.918,462L460.475,408.443z M112.117,212.537c0-56.213,45.732-101.946,101.945-101.946

	c56.213,0,101.947,45.733,101.947,101.946s-45.733,101.945-101.947,101.945C157.849,314.482,112.117,268.75,112.117,212.537z"/>

</svg>

